# xmcd
#
# Track frame offsets: 
#        150
#        13755
#        27229
#        51970
#        66749
#        79179
#        92500
#        105189
#        117128
#        129479
#        148174
#        162749
#        190895
#
# Disc length: 2605 seconds
#
# Revision: 0
# Processed by: cddbd v1.5.2PL0 Copyright (c) Steve Scherf et al.
# Submitted via: ExactAudioCopy v0.99pb4
#
DISCID=b40a2b0d
DTITLE=Imelda May - Love Tattoo
DYEAR=2007
DGENRE=Rock and Roll
TTITLE0=Johnny Got A Boom Boom 
TTITLE1=Feel Me 
TTITLE2=Knock 123 
TTITLE3=Wild About My Lovin 
TTITLE4=Big Bad Handsome Man 
TTITLE5=Love Tattoo 
TTITLE6=Meet You At The Moon 
TTITLE7=Smokers' Song 
TTITLE8=Smotherin' Me 
TTITLE9=Falling In Love With You Again 
TTITLE10=It's Your Voodoo Working 
TTITLE11=Watcha Gonna Do
TTITLE12=Data
EXTD=
EXTT0=
EXTT1=
EXTT2=
EXTT3=
EXTT4=
EXTT5=
EXTT6=
EXTT7=
EXTT8=
EXTT9=
EXTT10=
EXTT11=
EXTT12=
PLAYORDER=
